<svg width="24" height="24" viewBox="0 0 24 24" fill="none" xmlns="http://www.w3.org/2000/svg">
<path fill-rule="evenodd" clip-rule="evenodd" d="M23.0625 9.5625C23.5803 9.5625 24 9.14278 24 8.625V3.75C24 1.68225 22.3177 0 20.25 0H9.42188C8.39414 0 7.40152 0.428062 6.69572 1.17497L1.42528 6.43448C0.557578 7.12191 0 8.18456 0 9.375V20.25C0 22.3177 1.68225 24 3.75 24H14.5781C15.6443 24 16.608 23.5527 17.2915 22.836L17.3064 22.8215L22.9044 17.2739L22.9093 17.269C23.6126 16.5616 24 15.6226 24 14.625V13.3594C24 12.8416 23.5803 12.4219 23.0625 12.4219C22.5447 12.4219 22.125 12.8416 22.125 13.3594V14.625C22.125 15.1228 21.9322 15.5912 21.582 15.9447L18.3281 19.1692V9.375C18.3281 8.54841 18.0593 7.78345 17.6045 7.16292L21.9042 2.86786C22.045 3.13092 22.125 3.4313 22.125 3.75V8.625C22.125 9.14278 22.5447 9.5625 23.0625 9.5625ZM16.4531 16.5C15.9353 16.5 15.5156 16.9197 15.5156 17.4375C15.5156 17.9553 15.9353 18.375 16.4531 18.375V20.25C16.4531 21.2839 15.612 22.125 14.5781 22.125H3.75C2.71613 22.125 1.875 21.2839 1.875 20.25V9.375C1.875 8.34113 2.71613 7.5 3.75 7.5H5.67652C5.67347 7.53084 5.67188 7.56211 5.67188 7.59375C5.67188 8.11153 6.09159 8.53125 6.60938 8.53125C7.12716 8.53125 7.54688 8.11153 7.54688 7.59375C7.54688 7.56211 7.54528 7.53084 7.54223 7.5H14.5781C15.612 7.5 16.4531 8.34113 16.4531 9.375V16.5ZM14.5781 5.625C15.1377 5.625 15.6691 5.74823 16.1466 5.96897L20.245 1.875H9.42185C8.89751 1.875 8.41132 2.08594 8.05277 2.46891L8.0306 2.49173L4.89082 5.625H14.5781ZM7.54688 17.4375C7.54688 17.9553 7.12714 18.375 6.60938 18.375C6.09161 18.375 5.67188 17.9553 5.67188 17.4375C5.67188 16.9197 6.09161 16.5 6.60938 16.5C7.12714 16.5 7.54688 16.9197 7.54688 17.4375ZM9.89062 18.375C10.4084 18.375 10.8281 17.9553 10.8281 17.4375C10.8281 16.9197 10.4084 16.5 9.89062 16.5C9.37286 16.5 8.95312 16.9197 8.95312 17.4375C8.95312 17.9553 9.37286 18.375 9.89062 18.375ZM14.1094 17.4375C14.1094 17.9553 13.6896 18.375 13.1719 18.375C12.6541 18.375 12.2344 17.9553 12.2344 17.4375C12.2344 16.9197 12.6541 16.5 13.1719 16.5C13.6896 16.5 14.1094 16.9197 14.1094 17.4375ZM6.60938 15.0938C7.12714 15.0938 7.54688 14.674 7.54688 14.1562C7.54688 13.6385 7.12714 13.2188 6.60938 13.2188C6.09161 13.2188 5.67188 13.6385 5.67188 14.1562C5.67188 14.674 6.09161 15.0938 6.60938 15.0938ZM7.54688 10.875C7.54688 11.3928 7.12714 11.8125 6.60938 11.8125C6.09161 11.8125 5.67188 11.3928 5.67188 10.875C5.67188 10.3572 6.09161 9.9375 6.60938 9.9375C7.12714 9.9375 7.54688 10.3572 7.54688 10.875ZM4.3125 20.6719C4.83027 20.6719 5.25 20.2521 5.25 19.7344C5.25 19.2166 4.83027 18.7969 4.3125 18.7969C3.79473 18.7969 3.375 19.2166 3.375 19.7344C3.375 20.2521 3.79473 20.6719 4.3125 20.6719Z" fill="black" fill-opacity="0.88"/>
</svg>
