<svg width="24" height="22" viewBox="0 0 24 22" fill="none" xmlns="http://www.w3.org/2000/svg">
<path d="M10.8 4.88889V1.22222C10.8 0.898069 10.9264 0.587192 11.1515 0.357981C11.3765 0.128769 11.6817 0 12 0H22.8C23.1183 0 23.4235 0.128769 23.6485 0.357981C23.8736 0.587192 24 0.898069 24 1.22222V20.7778C24 21.1019 23.8736 21.4128 23.6485 21.642C23.4235 21.8712 23.1183 22 22.8 22H1.2C0.88174 22 0.576515 21.8712 0.351472 21.642C0.126428 21.4128 0 21.1019 0 20.7778V6.11111C0 5.78696 0.126428 5.47608 0.351472 5.24687C0.576515 5.01766 0.88174 4.88889 1.2 4.88889H10.8ZM3.6 15.8889V18.3333H9.6V15.8889H3.6ZM14.4 15.8889V18.3333H20.4V15.8889H14.4ZM14.4 12.2222V14.6667H20.4V12.2222H14.4ZM14.4 8.55556V11H20.4V8.55556H14.4ZM3.6 12.2222V14.6667H9.6V12.2222H3.6Z" fill="#FFFFFF"/>
</svg>
