<svg width="24" height="24" viewBox="0 0 24 24" fill="none" xmlns="http://www.w3.org/2000/svg">
<path fill-rule="evenodd" clip-rule="evenodd" d="M22.0782 12.3252C22.0782 12.8087 21.6584 13.2007 21.1407 13.2007C20.6229 13.2007 20.2032 12.8087 20.2032 12.3252V3.87673C20.2032 3.15264 19.5724 2.5635 18.797 2.5635H16.1251C15.3497 2.5635 14.7189 3.15259 14.7189 3.87673V16.7464C14.7189 17.4705 15.3497 18.0596 16.1251 18.0596H18.797C19.5724 18.0596 20.2032 17.4705 20.2032 16.7464C20.2032 16.2629 20.6229 15.8709 21.1407 15.8709C21.6585 15.8709 22.0782 16.2629 22.0782 16.7464C22.0782 18.436 20.6062 19.8106 18.7969 19.8106H16.1251C14.3158 19.8106 12.8438 18.436 12.8438 16.7464V3.87673C12.8438 2.18711 14.3158 0.8125 16.1251 0.8125H18.7969C20.6062 0.8125 22.0782 2.18711 22.0782 3.87673V12.3252ZM0.937493 21.5615H23.0626C23.5803 21.5615 24 21.9535 24 22.437C24 22.9205 23.5803 23.3125 23.0625 23.3125H0.937493C0.419712 23.3125 0 22.9205 0 22.437C0 21.9535 0.419712 21.5615 0.937493 21.5615ZM7.78127 8.69188H5.1094C3.3001 8.69188 1.82812 10.0665 1.82812 11.7561V16.7464C1.82812 18.436 3.3001 19.8106 5.1094 19.8106H7.78127C9.59056 19.8106 11.0625 18.436 11.0625 16.7464V11.7561C11.0625 10.0665 9.59056 8.69188 7.78127 8.69188ZM7.7813 18.0596C8.55667 18.0596 9.18753 17.4705 9.18753 16.7464V11.7561C9.18753 11.032 8.55672 10.4429 7.7813 10.4429H5.10943C4.33405 10.4429 3.70319 11.0319 3.70319 11.7561V16.7464C3.70319 17.4705 4.334 18.0596 5.10943 18.0596H7.7813Z" fill="black" fill-opacity="0.88"/>
</svg>
