<svg width="50" height="50" viewBox="0 0 50 50" fill="none" xmlns="http://www.w3.org/2000/svg">
<g filter="url(#filter0_d_1_342)">
<path d="M30.6568 27.828L29.2428 26.414L30.6568 25C31.0282 24.6286 31.3229 24.1876 31.5239 23.7023C31.7249 23.217 31.8284 22.6968 31.8284 22.1715C31.8284 21.6462 31.7249 21.126 31.5239 20.6407C31.3229 20.1554 31.0282 19.7144 30.6568 19.343C30.2853 18.9716 29.8444 18.6769 29.359 18.4759C28.8737 18.2749 28.3536 18.1714 27.8283 18.1714C27.303 18.1714 26.7828 18.2749 26.2975 18.4759C25.8122 18.6769 25.3712 18.9716 24.9998 19.343L23.5858 20.757L22.1718 19.343L23.5858 17.929C24.7141 16.8189 26.2353 16.1997 27.8181 16.2061C29.401 16.2125 30.9171 16.8442 32.0364 17.9634C33.1556 19.0826 33.7872 20.5988 33.7937 22.1816C33.8001 23.7644 33.1808 25.2857 32.0708 26.414L30.6568 27.828ZM27.8278 30.657L26.4138 32.071C25.8583 32.6356 25.1965 33.0846 24.4666 33.3922C23.7367 33.6998 22.9532 33.8598 22.1611 33.863C21.3691 33.8662 20.5843 33.7126 19.8519 33.411C19.1195 33.1094 18.4541 32.6658 17.8941 32.1057C17.334 31.5456 16.8904 30.8802 16.5888 30.1479C16.2872 29.4155 16.1335 28.6307 16.1368 27.8386C16.14 27.0466 16.3 26.263 16.6076 25.5331C16.9151 24.8033 17.3642 24.1415 17.9288 23.586L19.3428 22.172L20.7568 23.586L19.3428 25C18.9713 25.3714 18.6767 25.8124 18.4757 26.2977C18.2746 26.783 18.1712 27.3032 18.1712 27.8285C18.1712 28.3538 18.2746 28.874 18.4757 29.3593C18.6767 29.8446 18.9713 30.2856 19.3428 30.657C19.7142 31.0284 20.1552 31.3231 20.6405 31.5241C21.1258 31.7251 21.646 31.8286 22.1713 31.8286C22.6966 31.8286 23.2167 31.7251 23.702 31.5241C24.1874 31.3231 24.6283 31.0284 24.9998 30.657L26.4138 29.243L27.8278 30.657ZM27.8278 20.757L29.2428 22.172L22.1718 29.242L20.7568 27.828L27.8278 20.758V20.757Z" fill="url(#paint0_linear_1_342)"/>
</g>
<defs>
<filter id="filter0_d_1_342" x="0.136719" y="0.206055" width="49.6572" height="49.657" filterUnits="userSpaceOnUse" color-interpolation-filters="sRGB">
<feFlood flood-opacity="0" result="BackgroundImageFix"/>
<feColorMatrix in="SourceAlpha" type="matrix" values="0 0 0 0 0 0 0 0 0 0 0 0 0 0 0 0 0 0 127 0" result="hardAlpha"/>
<feOffset/>
<feGaussianBlur stdDeviation="8"/>
<feComposite in2="hardAlpha" operator="out"/>
<feColorMatrix type="matrix" values="0 0 0 0 0 0 0 0 0 0.721569 0 0 0 0 0.286275 0 0 0 0.6 0"/>
<feBlend mode="normal" in2="BackgroundImageFix" result="effect1_dropShadow_1_342"/>
<feBlend mode="normal" in="SourceGraphic" in2="effect1_dropShadow_1_342" result="shape"/>
</filter>
<linearGradient id="paint0_linear_1_342" x1="24.9652" y1="16.2061" x2="24.9652" y2="33.8631" gradientUnits="userSpaceOnUse">
<stop stop-color="#3DEB82"/>
<stop offset="1" stop-color="#00B849"/>
</linearGradient>
</defs>
</svg>
