<svg width="23" height="23" viewBox="0 0 23 23" fill="none" xmlns="http://www.w3.org/2000/svg">
<path d="M23 21.2989C23 21.6174 22.8654 21.923 22.6257 22.1482C22.3861 22.3735 22.0611 22.5 21.7222 22.5H1.27778C0.93889 22.5 0.613882 22.3735 0.374253 22.1482C0.134623 21.923 3.07574e-07 21.6174 3.07574e-07 21.2989V8.67524C-0.000134785 8.49221 0.0442331 8.31156 0.129715 8.14711C0.215197 7.98266 0.339531 7.83875 0.493222 7.72636L10.7154 0.253066C10.9397 0.0890493 11.2158 0 11.5 0C11.7842 0 12.0603 0.0890493 12.2846 0.253066L22.5068 7.72636C22.6605 7.83875 22.7848 7.98266 22.8703 8.14711C22.9558 8.31156 23.0001 8.49221 23 8.67524V21.2989ZM10.2222 12.8911V20.0978H12.7778V12.8911H10.2222Z" fill="#E4E7F9"/>
</svg>
