<svg width="24" height="26" viewBox="0 0 24 26" fill="none" xmlns="http://www.w3.org/2000/svg">
<g  transform="translate(4,0)">
<path d="M19.2933 13.6933L1.62825 25.47C1.50276 25.5535 1.35697 25.6014 1.2064 25.6086C1.05584 25.6158 0.90614 25.582 0.77325 25.5109C0.640361 25.4397 0.529258 25.3339 0.451775 25.2046C0.374291 25.0753 0.33333 24.9274 0.333252 24.7767V1.22333C0.33333 1.07259 0.374291 0.9247 0.451775 0.795402C0.529258 0.666104 0.640361 0.560243 0.77325 0.489095C0.90614 0.417947 1.05584 0.384176 1.2064 0.391379C1.35697 0.398581 1.50276 0.446489 1.62825 0.529997L19.2933 12.3067C19.4074 12.3828 19.501 12.4859 19.5657 12.6068C19.6304 12.7278 19.6643 12.8628 19.6643 13C19.6643 13.1372 19.6304 13.2722 19.5657 13.3932C19.501 13.5141 19.4074 13.6172 19.2933 13.6933Z" fill="#FFFFFF"/>
</g>
</svg>
