<svg width="24" height="24" viewBox="0 0 24 24" fill="none" xmlns="http://www.w3.org/2000/svg">
<path fill-rule="evenodd" clip-rule="evenodd" d="M23.0625 7.5C23.5803 7.5 24 7.91972 24 8.4375V20.25C24 22.3177 22.3177 24 20.25 24H3.75C1.68225 24 0 22.3177 0 20.25V3.75C0 1.68225 1.68225 0 3.75 0H20.25C22.3177 0 24 1.68225 24 3.75C24 4.26778 23.5803 4.6875 23.0625 4.6875C22.5447 4.6875 22.125 4.26778 22.125 3.75C22.125 2.71613 21.2839 1.875 20.25 1.875H9.1875V15H22.125V8.4375C22.125 7.91972 22.5447 7.5 23.0625 7.5ZM7.3125 13.125H4.6875C4.16972 13.125 3.75 12.7053 3.75 12.1875C3.75 11.6697 4.16972 11.25 4.6875 11.25H7.3125V9.375H5.67188C5.15409 9.375 4.73438 8.95528 4.73438 8.4375C4.73438 7.91972 5.15409 7.5 5.67188 7.5H7.3125V5.625H4.6875C4.16972 5.625 3.75 5.20528 3.75 4.6875C3.75 4.16972 4.16972 3.75 4.6875 3.75H7.3125V1.875H3.75C2.71613 1.875 1.875 2.71613 1.875 3.75V15H7.3125V13.125ZM20.4375 19.4531V16.875H22.125V20.25C22.125 21.2839 21.2839 22.125 20.25 22.125H3.75C2.71613 22.125 1.875 21.2839 1.875 20.25V16.875H3.5625V19.4531C3.5625 19.9709 3.98222 20.3906 4.5 20.3906C5.01778 20.3906 5.4375 19.9709 5.4375 19.4531V16.875H7.3125V18.5156C7.3125 19.0334 7.73222 19.4531 8.25 19.4531C8.76778 19.4531 9.1875 19.0334 9.1875 18.5156V16.875H11.0625V19.4531C11.0625 19.9709 11.4822 20.3906 12 20.3906C12.5178 20.3906 12.9375 19.9709 12.9375 19.4531V16.875H14.8125V18.5156C14.8125 19.0334 15.2322 19.4531 15.75 19.4531C16.2678 19.4531 16.6875 19.0334 16.6875 18.5156V16.875H18.5625V19.4531C18.5625 19.9709 18.9822 20.3906 19.5 20.3906C20.0178 20.3906 20.4375 19.9709 20.4375 19.4531Z" fill="black" fill-opacity="0.88"/>
</svg>
