<svg width="24" height="24" viewBox="0 0 24 24" fill="none" xmlns="http://www.w3.org/2000/svg">
<g clip-path="url(#clip0_47_285)">
<path d="M8 20V21.932C8.00015 22.0271 7.97319 22.1203 7.92227 22.2006C7.87134 22.2809 7.79858 22.345 7.7125 22.3854C7.62642 22.4258 7.53061 22.4409 7.43629 22.4287C7.34197 22.4166 7.25307 22.3779 7.18 22.317L3.06 18.884C2.98098 18.8181 2.92421 18.7294 2.89744 18.6301C2.87067 18.5307 2.8752 18.4255 2.91042 18.3289C2.94563 18.2322 3.00982 18.1487 3.09421 18.0899C3.17861 18.031 3.27911 17.9996 3.382 18H18C18.5304 18 19.0391 17.7893 19.4142 17.4142C19.7893 17.0391 20 16.5304 20 16V14H22V16C22 17.0609 21.5786 18.0783 20.8284 18.8284C20.0783 19.5786 19.0609 20 18 20H8ZM16 4V2.068C15.9998 1.97291 16.0268 1.87974 16.0777 1.79943C16.1287 1.71912 16.2014 1.655 16.2875 1.61459C16.3736 1.57417 16.4694 1.55914 16.5637 1.57126C16.658 1.58338 16.7469 1.62214 16.82 1.683L20.94 5.116C21.019 5.18184 21.0757 5.27042 21.1025 5.36967C21.1293 5.46892 21.1248 5.57402 21.0898 5.67066C21.0547 5.76729 20.9906 5.85076 20.9064 5.90969C20.8222 5.96862 20.7218 6.00016 20.619 6H6C5.46957 6 4.96086 6.21071 4.58579 6.58578C4.21071 6.96086 4 7.46956 4 8V16H2V8C2 6.93913 2.42143 5.92172 3.17157 5.17157C3.92172 4.42143 4.93913 4 6 4H16Z" fill="#000000"/>
<path d="M22 9H20V12H22V9Z" fill="#000000"/>
</g>
<defs>
<clipPath id="clip0_47_285">
<rect width="24" height="24" fill="#000000"/>
</clipPath>
</defs>
</svg>
