<svg width="26" height="26" viewBox="0 0 26 26" fill="none" xmlns="http://www.w3.org/2000/svg">
<path d="M10.2719 0.825024C12.0705 0.471442 13.9276 0.47059 15.7266 0.822524C15.8464 1.56413 16.143 2.27089 16.5943 2.89025C17.0456 3.50961 17.6399 4.02566 18.3332 4.40002C19.026 4.77569 19.8001 5.0001 20.5982 5.05659C21.3962 5.11307 22.1975 5.00017 22.9426 4.72627C24.1669 6.01135 25.0944 7.52007 25.6666 9.15753C25.0417 9.62575 24.5374 10.22 24.1911 10.896C23.8449 11.5721 23.6656 12.3126 23.6666 13.0625C23.6666 14.6425 24.4479 16.0513 25.6692 16.9675C25.0937 18.6036 24.1651 20.1111 22.9412 21.3963C22.1964 21.1226 21.3953 21.0098 20.5975 21.0663C19.7997 21.1227 19.0258 21.3471 18.3332 21.7225C17.6405 22.0968 17.0466 22.6125 16.5956 23.2314C16.1445 23.8503 15.848 24.5565 15.7279 25.2975C13.9295 25.6519 12.0724 25.6536 10.2732 25.3025C10.154 24.5602 9.85764 23.8528 9.40633 23.2327C8.95502 22.6127 8.36034 22.096 7.66657 21.7213C6.97372 21.3458 6.1995 21.1216 5.40148 21.0653C4.60347 21.0091 3.80219 21.1222 3.05723 21.3963C1.8327 20.1108 0.90524 18.6017 0.333233 16.9638C0.957757 16.4958 1.46184 15.902 1.80808 15.2264C2.15431 14.5508 2.33381 13.8108 2.33323 13.0613C2.33389 12.3111 2.15418 11.5705 1.80746 10.8944C1.46074 10.2184 0.955931 9.62425 0.330566 9.15627C0.906124 7.52018 1.83472 6.01265 3.05857 4.72752C3.80344 5.00122 4.60453 5.11402 5.40229 5.05754C6.20006 5.00106 6.97399 4.77674 7.66657 4.40127C8.35929 4.02702 8.95322 3.5113 9.40425 2.89241C9.85528 2.27351 10.1518 1.56733 10.2719 0.826274V0.825024ZM12.9999 16.8125C14.0608 16.8125 15.0782 16.4174 15.8283 15.7142C16.5785 15.0109 16.9999 14.0571 16.9999 13.0625C16.9999 12.068 16.5785 11.1141 15.8283 10.4109C15.0782 9.70761 14.0608 9.31252 12.9999 9.31252C11.939 9.31252 10.9216 9.70761 10.1715 10.4109C9.42133 11.1141 8.9999 12.068 8.9999 13.0625C8.9999 14.0571 9.42133 15.0109 10.1715 15.7142C10.9216 16.4174 11.939 16.8125 12.9999 16.8125Z" fill="#BEC1D1"/>
</svg>
