<svg width="24" height="24" viewBox="0 0 24 24" fill="none" xmlns="http://www.w3.org/2000/svg">
<path fill-rule="evenodd" clip-rule="evenodd" d="M19.7602 11.9944L23.5955 14.6452C23.8488 14.8203 24 15.1085 24 15.4165C24 15.7244 23.8488 16.0127 23.5955 16.1877L21.2818 17.7868C21.1192 17.8992 20.9334 17.9532 20.7496 17.9532C20.4521 17.9532 20.1595 17.8119 19.9775 17.5487C19.6831 17.1227 19.7898 16.5388 20.2157 16.2444L21.4136 15.4165L18.1104 13.1334L12.5326 16.9843C12.3723 17.095 12.1861 17.1504 12 17.1504C11.8139 17.1504 11.6277 17.095 11.4674 16.9843L5.88961 13.1334L2.58637 15.4165L12 21.9229L16.342 18.9219C16.7678 18.6275 17.3518 18.7341 17.6462 19.16C17.9406 19.5859 17.834 20.1699 17.408 20.4643L12.533 23.8337C12.3727 23.9445 12.1863 24 12 24C11.8137 24 11.6273 23.9445 11.467 23.8337L0.404484 16.1877C0.151219 16.0126 0 15.7244 0 15.4165C0 15.1085 0.151219 14.8203 0.404484 14.6452L4.23984 11.9944L0.404859 9.34662C0.151359 9.17163 0 8.88321 0 8.57515C0 8.26709 0.151359 7.97866 0.404812 7.80368L11.4673 0.166008C11.7879 -0.0553359 12.212 -0.0553359 12.5326 0.166008L23.5951 7.80368C23.8486 7.97866 24 8.26713 24 8.57515C24 8.88316 23.8486 9.17159 23.5951 9.34662L19.7602 11.9944ZM2.58761 8.57543L12 15.0739L21.4124 8.57543L12 2.07701L2.58761 8.57543Z" fill="black" fill-opacity="0.88"/>
</svg>
