<svg width="18" height="20" viewBox="0 0 18 20" fill="none" xmlns="http://www.w3.org/2000/svg">
<path d="M9.00053 15C12.6625 15 15.8655 16.575 17.6075 18.925L15.7655 19.796C14.3475 18.116 11.8475 17 9.00053 17C6.15353 17 3.65353 18.116 2.23553 19.796L0.394531 18.924C2.13653 16.574 5.33853 15 9.00053 15ZM9.00053 0C10.3266 0 11.5984 0.526784 12.5361 1.46447C13.4737 2.40215 14.0005 3.67392 14.0005 5V8C14.0005 9.32608 13.4737 10.5979 12.5361 11.5355C11.5984 12.4732 10.3266 13 9.00053 13C7.67445 13 6.40268 12.4732 5.465 11.5355C4.52732 10.5979 4.00053 9.32608 4.00053 8V5C4.00053 3.67392 4.52732 2.40215 5.465 1.46447C6.40268 0.526784 7.67445 0 9.00053 0Z" fill="#FFFFFF"/>
</svg>
